<svg xmlns="http://www.w3.org/2000/svg" viewBox="0 0 1000 1290" font-family="-apple-system, BlinkMacSystemFont, 'Segoe UI', Roboto, 'Helvetica Neue', Arial, sans-serif">
  <defs>
    <filter id="treeShadow" x="-2%" y="-2%" width="104%" height="108%">
      <feDropShadow dx="0" dy="2" stdDeviation="3" flood-color="#000" flood-opacity="0.55"/>
    </filter>
  </defs>

  <rect width="1000" height="1290" fill="#161616"/>
  <rect x="0.5" y="0.5" width="999" height="1289" fill="none" stroke="#2a2a2a" stroke-width="1"/>

  <!-- TITLE -->
  <text x="500" y="58" text-anchor="middle" font-size="38" font-weight="700" fill="#ffffff">EvilSoul / KAIDO — VT sample corpus map</text>
  <text x="500" y="100" text-anchor="middle" font-size="24" fill="#f5f5f5">Six VirusTotal samples mapped to the dead open directory</text>
  <text x="500" y="134" text-anchor="middle" font-size="17" fill="#cccccc">144.172.103.98:8888 was the factory; the samples are its products + the operator's live RAT</text>
  <line x1="60" y1="160" x2="940" y2="160" stroke="#2a2a2a" stroke-width="1"/>

  <!-- OPERATOR -->
  <g filter="url(#treeShadow)">
    <rect x="220" y="190" width="560" height="92" rx="8" fill="#1a1a1a" stroke="#2a2a2a" stroke-width="1"/>
    <rect x="220" y="190" width="6" height="92" rx="3" fill="#6b7280"/>
    <text x="242" y="228" font-size="22" font-weight="600" fill="#ffffff">KAIDO / n_3_xl — the operator</text>
    <text x="242" y="258" font-size="16" fill="#e5e5e5">Brazil · named actor (HIGH) · built on EvilSoul-Engine (DEFINITE lineage)</text>
  </g>
  <line x1="500" y1="282" x2="500" y2="308" stroke="#666666" stroke-width="2"/>

  <!-- DEAD FACTORY (open dir) -->
  <g filter="url(#treeShadow)">
    <rect x="220" y="308" width="560" height="110" rx="8" fill="#1a1a1a" stroke="#6b7280" stroke-width="1.5" stroke-dasharray="6 4"/>
    <rect x="220" y="308" width="6" height="110" rx="3" fill="#6b7280"/>
    <text x="242" y="344" font-size="20" font-weight="600" fill="#ffffff"><tspan font-family="ui-monospace, 'Cascadia Mono', Menlo, monospace">144.172.103.98:8888</tspan> — KAIDO Services</text>
    <text x="242" y="374" font-size="16" fill="#e5e5e5">the EvilSoul-Engine factory: builder · obfuscator · stealer source · panel</text>
    <text x="242" y="400" font-size="15" fill="#cccccc">status: DEAD / torn down — its built EXEs were unrecoverable; VT filled the gap</text>
  </g>

  <!-- Y-BRANCH -->
  <line x1="500" y1="418" x2="500" y2="452" stroke="#666666" stroke-width="2"/>
  <line x1="285" y1="452" x2="715" y2="452" stroke="#666666" stroke-width="2"/>
  <line x1="285" y1="452" x2="285" y2="478" stroke="#666666" stroke-width="2"/>
  <line x1="715" y1="452" x2="715" y2="478" stroke="#666666" stroke-width="2"/>

  <!-- ===== LEFT COLUMN: EvilSoul stealers (red) ===== -->
  <g filter="url(#treeShadow)">
    <rect x="80" y="478" width="410" height="52" rx="8" fill="#1a1a1a" stroke="#2a2a2a" stroke-width="1"/>
    <rect x="80" y="478" width="6" height="52" rx="3" fill="#dc2626"/>
    <text x="100" y="510" font-size="20" font-weight="600" fill="#ffffff">EvilSoul stealer builds — factory output</text>
  </g>
  <line x1="285" y1="530" x2="285" y2="544" stroke="#666666" stroke-width="2"/>

  <g filter="url(#treeShadow)">
    <rect x="80" y="544" width="410" height="102" rx="8" fill="#1a1a1a" stroke="#2a2a2a" stroke-width="1"/>
    <rect x="80" y="544" width="6" height="102" rx="3" fill="#dc2626"/>
    <text x="100" y="578" font-size="19" font-weight="600" fill="#ffffff"><tspan font-family="ui-monospace, 'Cascadia Mono', Menlo, monospace">Maploot.msi</tspan> → Electron stealer</text>
    <text x="100" y="606" font-size="15" fill="#e5e5e5">Discord · browser (DPAPI + SQLite) · Steam · Exodus</text>
    <text x="100" y="630" font-size="15" fill="#cccccc">stage-2 decrypted (AES-256-CBC)</text>
  </g>
  <line x1="285" y1="646" x2="285" y2="658" stroke="#666666" stroke-width="2"/>

  <g filter="url(#treeShadow)">
    <rect x="80" y="658" width="410" height="102" rx="8" fill="#1a1a1a" stroke="#2a2a2a" stroke-width="1"/>
    <rect x="80" y="658" width="6" height="102" rx="3" fill="#dc2626"/>
    <text x="100" y="692" font-size="19" font-weight="600" fill="#ffffff"><tspan font-family="ui-monospace, 'Cascadia Mono', Menlo, monospace">Tinarox.msi</tspan> → Electron (Maploot twin)</text>
    <text x="100" y="720" font-size="15" fill="#e5e5e5">added keyed obfuscation layer — cracked with webcrack</text>
    <text x="100" y="744" font-size="15" fill="#fb923c" font-weight="600">exfil stack byte-for-byte SHARED with Maploot</text>
  </g>
  <line x1="285" y1="760" x2="285" y2="772" stroke="#666666" stroke-width="2"/>

  <g filter="url(#treeShadow)">
    <rect x="80" y="772" width="410" height="102" rx="8" fill="#1a1a1a" stroke="#2a2a2a" stroke-width="1"/>
    <rect x="80" y="772" width="6" height="102" rx="3" fill="#dc2626"/>
    <text x="100" y="806" font-size="19" font-weight="600" fill="#ffffff"><tspan font-family="ui-monospace, 'Cascadia Mono', Menlo, monospace">299a2e7f</tspan> → pkg-Node build</text>
    <text x="100" y="834" font-size="15" fill="#e5e5e5">static-opaque (V8 bytecode) — VT sandbox gave C2</text>
    <text x="100" y="858" font-size="15" fill="#cccccc" font-family="ui-monospace, 'Cascadia Mono', Menlo, monospace">evilsoul.cc → 198.1.195.210 · dpapi + sqlite3</text>
  </g>
  <line x1="285" y1="874" x2="285" y2="886" stroke="#666666" stroke-width="2"/>

  <g filter="url(#treeShadow)">
    <rect x="80" y="886" width="410" height="118" rx="8" fill="#1a1a1a" stroke="#7f1d1d" stroke-width="2"/>
    <rect x="80" y="886" width="6" height="118" rx="3" fill="#7f1d1d"/>
    <text x="100" y="920" font-size="20" font-weight="600" fill="#ffffff">→ shared exfil backend</text>
    <text x="100" y="948" font-size="15" fill="#e5e5e5" font-family="ui-monospace, 'Cascadia Mono', Menlo, monospace">evilsoul.xyz · webhook 1391195207…</text>
    <text x="100" y="972" font-size="15" fill="#e5e5e5" font-family="ui-monospace, 'Cascadia Mono', Menlo, monospace">gofile store8 · Steam key 440D7F4D…F902</text>
    <text x="100" y="996" font-size="15" fill="#fb923c" font-weight="600">one exfil stack across both Electron builds</text>
  </g>

  <!-- ===== RIGHT COLUMN: KAIDO Quasar RAT (orange) ===== -->
  <g filter="url(#treeShadow)">
    <rect x="510" y="478" width="410" height="52" rx="8" fill="#1a1a1a" stroke="#2a2a2a" stroke-width="1"/>
    <rect x="510" y="478" width="6" height="52" rx="3" fill="#f97316"/>
    <text x="530" y="510" font-size="20" font-weight="600" fill="#ffffff">KAIDO Quasar RAT builds — live product</text>
  </g>
  <line x1="715" y1="530" x2="715" y2="544" stroke="#666666" stroke-width="2"/>

  <g filter="url(#treeShadow)">
    <rect x="510" y="544" width="410" height="102" rx="8" fill="#1a1a1a" stroke="#2a2a2a" stroke-width="1"/>
    <rect x="510" y="544" width="6" height="102" rx="3" fill="#f97316"/>
    <text x="530" y="578" font-size="19" font-weight="600" fill="#ffffff"><tspan font-family="ui-monospace, 'Cascadia Mono', Menlo, monospace">c7542e82</tspan> — richest build</text>
    <text x="530" y="606" font-size="15" fill="#e5e5e5">Quasar fork "Kaido" v2.4.5 · config decrypted</text>
    <text x="530" y="630" font-size="15" fill="#fb923c" font-weight="600">HVNC + browser-profile cloning (DXGI hook)</text>
  </g>
  <line x1="715" y1="646" x2="715" y2="658" stroke="#666666" stroke-width="2"/>

  <g filter="url(#treeShadow)">
    <rect x="510" y="658" width="410" height="102" rx="8" fill="#1a1a1a" stroke="#2a2a2a" stroke-width="1"/>
    <rect x="510" y="658" width="6" height="102" rx="3" fill="#f97316"/>
    <text x="530" y="692" font-size="19" font-weight="600" fill="#ffffff"><tspan font-family="ui-monospace, 'Cascadia Mono', Menlo, monospace">385d20ca</tspan> — sibling build</text>
    <text x="530" y="720" font-size="15" fill="#e5e5e5">same config · campaign tag "kaido-webdav"</text>
    <text x="530" y="744" font-size="15" fill="#cccccc" font-family="ui-monospace, 'Cascadia Mono', Menlo, monospace">c2.kaidoo.com.br:443</text>
  </g>
  <line x1="715" y1="760" x2="715" y2="772" stroke="#666666" stroke-width="2"/>

  <g filter="url(#treeShadow)">
    <rect x="510" y="772" width="410" height="102" rx="8" fill="#1a1a1a" stroke="#2a2a2a" stroke-width="1"/>
    <rect x="510" y="772" width="6" height="102" rx="3" fill="#f97316"/>
    <text x="530" y="806" font-size="19" font-weight="600" fill="#ffffff"><tspan font-family="ui-monospace, 'Cascadia Mono', Menlo, monospace">022944768</tspan> — low-detection sibling</text>
    <text x="530" y="834" font-size="15" fill="#e5e5e5">config identical to 385d20ca</text>
    <text x="530" y="858" font-size="15" fill="#cccccc">AES-256-GCM · PBKDF2-SHA256 100k</text>
  </g>
  <line x1="715" y1="874" x2="715" y2="886" stroke="#666666" stroke-width="2"/>

  <g filter="url(#treeShadow)">
    <rect x="510" y="886" width="410" height="118" rx="8" fill="#1a1a1a" stroke="#7f1d1d" stroke-width="2"/>
    <rect x="510" y="886" width="6" height="118" rx="3" fill="#7f1d1d"/>
    <text x="530" y="920" font-size="20" font-weight="600" fill="#fb923c">★ live C2</text>
    <text x="530" y="948" font-size="16" fill="#e5e5e5" font-family="ui-monospace, 'Cascadia Mono', Menlo, monospace">144.172.109.203</text>
    <text x="530" y="972" font-size="15" fill="#e5e5e5" font-family="ui-monospace, 'Cascadia Mono', Menlo, monospace">c2.kaidoo.com.br · kaidoo.com.br:4782</text>
    <text x="530" y="996" font-size="15" fill="#cccccc">TeamKAIDO cert · active since ~May 2025</text>
  </g>

  <!-- FOOTER -->
  <line x1="60" y1="1048" x2="940" y2="1048" stroke="#2a2a2a" stroke-width="1"/>
  <text x="500" y="1082" text-anchor="middle" font-size="18" font-weight="600" fill="#ffffff">Detection anchors — RAT: Kaido.Common.Messages.* · Default_runhost · pipe kaido_dxgi_* · TeamKAIDO cert</text>
  <text x="500" y="1108" text-anchor="middle" font-size="18" font-weight="600" fill="#ffffff">stealer: evilsoul.xyz · webhook 1391195207508295750 · obfuscator kYnoHN / gWTIeNK / shadbras</text>
  <text x="500" y="1138" text-anchor="middle" font-size="15" fill="#e5e5e5">Same operator (n_3_xl / KAIDO): the dead factory builds the stealers; the Quasar RAT C2 is live.</text>

  <g transform="translate(110, 1176)">
    <rect x="0" y="0" width="16" height="16" fill="#6b7280"/>
    <text x="24" y="13" font-size="14" fill="#cccccc">operator / dead factory</text>
    <rect x="210" y="0" width="16" height="16" fill="#dc2626"/>
    <text x="234" y="13" font-size="14" fill="#cccccc">EvilSoul stealer builds</text>
    <rect x="430" y="0" width="16" height="16" fill="#f97316"/>
    <text x="454" y="13" font-size="14" fill="#cccccc">KAIDO Quasar RAT builds</text>
    <rect x="660" y="0" width="16" height="16" fill="#7f1d1d"/>
    <text x="684" y="13" font-size="14" fill="#cccccc">live C2 / shared exfil</text>
  </g>

  <text x="500" y="1234" text-anchor="middle" font-size="14" fill="#888888">299a2e7f pkg-Node is static-opaque; its network + behaviour came from VT sandbox — full source needs dynamic detonation.</text>
</svg>
